<?xml version="1.0" encoding="UTF-8"?>
<svg width="534px" height="154px" viewBox="0 0 534 154" version="1.1" xmlns="http://www.w3.org/2000/svg" xmlns:xlink="http://www.w3.org/1999/xlink">
    <!-- Generator: Sketch 52.2 (67145) - http://www.bohemiancoding.com/sketch -->
    <title>apple-app-store</title>
    <desc>Created with Sketch.</desc>
    <g id="Page-1" stroke="none" stroke-width="1" fill="none" fill-rule="evenodd">
        <g id="apple-app-store">
            <path d="M533.417509,138.110795 C533.417511,142.177803 531.800376,146.078004 528.922304,148.952312 C526.044231,151.82662 522.141311,153.439255 518.073228,153.435008 L15.9262146,153.435008 C7.45115083,153.443852 0.572967415,146.583611 0.5619224,138.110795 L0.5619224,15.9051975 C0.572961572,7.42914644 7.44791114,0.563179122 15.9262146,0.560979 L518.069226,0.560979 C522.139475,0.560978862 526.04296,2.17772492 528.920686,5.05543916 C531.798412,7.9331534 533.414569,11.8360257 533.413507,15.9051975 L533.417509,138.110795 Z" id="Path" fill="#FFFFFF"></path>
            <path d="M533.417509,138.110795 C533.417511,142.177803 531.800376,146.078004 528.922304,148.952312 C526.044231,151.82662 522.141311,153.439255 518.073228,153.435008 L15.9262146,153.435008 C7.45115083,153.443852 0.572967415,146.583611 0.5619224,138.110795 L0.5619224,15.9051975 C0.572961572,7.42914644 7.44791114,0.563179122 15.9262146,0.560979 L518.069226,0.560979 C522.139475,0.560978862 526.04296,2.17772492 528.920686,5.05543916 C531.798412,7.9331534 533.414569,11.8360257 533.413507,15.9051975 L533.417509,138.110795 Z" id="Path" fill="#000000"></path>
            <path d="M117.577076,76.1577624 C117.461014,63.2622171 128.138777,56.9884923 128.62704,56.696412 C122.579776,47.8819887 113.206718,46.6776576 109.91294,46.5816312 C102.040691,45.7534035 94.4045701,51.2909259 90.3944058,51.2909259 C86.3041982,51.2909259 80.1288654,46.6616532 73.4732733,46.7976906 C64.9086509,46.9297269 56.8963266,51.8870898 52.5019549,59.5852062 C43.4330603,75.2815215 50.1967107,98.347863 58.8854001,111.035351 C63.2317458,117.253061 68.3104869,124.186967 74.9580746,123.9429 C81.4615846,123.678827 83.8908958,119.801761 91.7391315,119.801761 C99.5153284,119.801761 101.79656,123.9429 108.576219,123.786857 C115.555986,123.678827 119.950357,117.545141 124.144621,111.275417 C129.167332,104.15746 131.18442,97.1395308 131.264464,96.7794318 C131.104377,96.7234164 117.71315,91.6100106 117.577076,76.1577624 Z M104.770164,38.2353366 C108.268052,33.8621343 110.661344,27.9124986 109.996985,21.8748387 C104.934253,22.0989003 98.6028359,25.3758012 94.9568682,29.6529771 C91.7311272,33.4220133 88.849572,39.5997117 89.5939738,45.4093089 C95.2810431,45.8334255 101.120195,42.5405202 104.770164,38.2353366 Z" id="Shape" fill="#FFFFFF" fill-rule="nonzero"></path>
            <g id="Group" transform="translate(165.090720, 65.018700)" fill="#FFFFFF" fill-rule="nonzero">
                <path d="M46.6851964,58.0319544 L37.596291,58.0319544 L32.617604,42.3916545 L15.3122642,42.3916545 L10.5697046,58.0319544 L1.7209288,58.0319544 L18.8701844,4.7853156 L29.4598998,4.7853156 L46.6851964,58.0319544 Z M31.116794,35.8298505 L26.614364,21.926028 C26.138107,20.5056375 25.2416231,17.1607179 23.9289146,11.8952703 L23.7688282,11.8952703 C23.2405431,14.1598929 22.3960874,17.5048125 21.2394631,21.926028 L16.8130742,35.8298505 L31.116794,35.8298505 Z M90.7009521,38.3625468 C90.7009521,44.892342 88.9279952,50.053761 85.3780793,53.8428027 C82.2003642,57.21573 78.2502323,58.9001931 73.53969,58.9001931 C68.4529446,58.9001931 64.7949704,57.0876948 62.5737716,53.454696 L62.5737716,73.6002345 L54.0411665,73.6002345 L54.0411665,32.2568682 C54.0411665,28.1557407 53.9331082,23.9505846 53.7249958,19.6373988 L61.2290458,19.6373988 L61.7053029,25.7230719 L61.8653893,25.7230719 C64.710925,21.1378113 69.0292557,18.845181 74.8243834,18.845181 C79.3548285,18.845181 83.1368697,20.6336727 86.1625026,24.2146572 C89.1841334,27.8036439 90.7009521,32.5169397 90.7009521,38.3625468 Z M82.0082606,38.6746326 C82.0082606,34.9376052 81.167807,31.8567582 79.4788954,29.4280905 C77.6338997,26.9033964 75.1565626,25.6390488 72.0508865,25.6390488 C69.9457503,25.6390488 68.0327178,26.3432424 66.3237955,27.7316241 C64.610871,29.1320091 63.4902662,30.9605118 62.9659833,33.2251344 C62.7319328,34.0720538 62.5989371,34.9436839 62.5697694,35.8218483 L62.5697694,42.2276094 C62.5697694,45.0163761 63.4262317,47.373024 65.1391562,49.3015542 C66.8520806,51.2220822 69.0772816,52.1863473 71.814759,52.1863473 C75.0284935,52.1863473 77.5298435,50.9420052 79.318809,48.4733265 C81.1117767,45.9966456 82.0082606,42.731748 82.0082606,38.6746326 Z M134.872792,38.3625468 C134.872792,44.892342 133.099835,50.053761 129.549919,53.8428027 C126.368202,57.21573 122.422072,58.9001931 117.707528,58.9001931 C112.620782,58.9001931 108.962808,57.0876948 106.741609,53.454696 L106.741609,73.6002345 L98.2090042,73.6002345 L98.2090042,32.2568682 C98.2090042,28.1557407 98.1009459,23.9505846 97.8928336,19.6373988 L105.396884,19.6373988 L105.873141,25.7230719 L106.033227,25.7230719 C108.874761,21.1378113 113.193091,18.845181 118.992221,18.845181 C123.518664,18.845181 127.300705,20.6336727 130.334343,24.2146572 C133.351971,27.8036439 134.872792,32.5169397 134.872792,38.3625468 Z M126.176098,38.6746326 C126.176098,34.9376052 125.331643,31.8567582 123.642731,29.4280905 C121.797735,26.9033964 119.328403,25.6390488 116.222726,25.6390488 C114.11759,25.6390488 112.204558,26.3432424 110.487631,27.7316241 C108.774707,29.1320091 107.658104,30.9605118 107.133821,33.2251344 C106.873681,34.2814248 106.733605,35.1416613 106.733605,35.8218483 L106.733605,42.2276094 C106.733605,45.0163761 107.594069,47.373024 109.29899,49.3015542 C111.011914,51.2180811 113.237115,52.1863473 115.982597,52.1863473 C119.200333,52.1863473 121.701683,50.9420052 123.486647,48.4733265 C125.279614,45.9966456 126.176098,42.731748 126.176098,38.6746326 Z M184.259446,43.0958481 C184.259446,47.6290944 182.674591,51.3141075 179.524891,54.1588896 C176.059021,57.2637432 171.220409,58.8201711 165.017061,58.8201711 C159.285968,58.8201711 154.691488,57.7158675 151.225618,55.5032592 L153.198683,48.3933045 C156.940702,50.6099139 161.050921,51.7142175 165.525335,51.7142175 C168.743072,51.7142175 171.244422,50.9860173 173.029385,49.5416202 C174.818351,48.093222 175.722839,46.1566896 175.722839,43.7400252 C175.722839,41.5754301 174.974435,39.7629318 173.505642,38.2865259 C172.028845,36.8141211 169.587528,35.4417438 166.157677,34.1813973 C156.832644,30.7044414 152.166125,25.6190433 152.166125,18.9292041 C152.166125,14.5600029 153.815015,10.9830195 157.104791,8.1862506 C160.394566,5.3934828 164.756921,3.9970989 170.18385,3.9970989 C175.030465,3.9970989 179.068645,4.841331 182.274375,6.5257941 L180.133219,13.4797059 C177.115591,11.8472571 173.709753,11.0310327 169.899696,11.0310327 C166.890072,11.0310327 164.528798,11.7712362 162.839886,13.243641 C161.419119,14.5600029 160.69873,16.164444 160.69873,18.0689676 C160.69873,20.1695451 161.519173,21.9140247 163.152055,23.2824009 C164.568819,24.5427474 167.154215,25.9151247 170.892232,27.3875295 C175.478707,29.2360377 178.848526,31.3886295 181.00569,33.8613093 C183.178863,36.3339891 184.259446,39.4188372 184.259446,43.0958481 Z M212.542711,26.0391588 L203.137635,26.0391588 L203.137635,44.6802837 C203.137635,49.4215872 204.794529,51.7862373 208.116322,51.7862373 C209.641145,51.7862373 210.905828,51.6582021 211.906368,51.3901284 L212.142495,57.8679093 C210.461588,58.496082 208.248393,58.8121689 205.506914,58.8121689 C202.137095,58.8121689 199.503674,57.7838862 197.602648,55.7273208 C195.709626,53.6707554 194.757112,50.2258083 194.757112,45.3764751 L194.757112,26.0231544 L189.154088,26.0231544 L189.154088,19.6213944 L194.757112,19.6213944 L194.757112,12.5914617 L203.137635,10.0627665 L203.137635,19.6213944 L212.542711,19.6213944 L212.542711,26.0391588 Z M254.893568,38.5185897 C254.893568,44.4202122 253.204657,49.2655443 249.834838,53.054586 C246.308935,56.9556585 241.618404,58.9001931 235.771248,58.9001931 C230.128202,58.9001931 225.641781,57.0316794 222.295975,53.2986531 C218.950169,49.5576246 217.277266,44.8443288 217.277266,39.1587657 C217.277266,33.20913 219.0062,28.3357902 222.452059,24.5467485 C225.905923,20.7537057 230.556433,18.8571843 236.403589,18.8571843 C242.03863,18.8571843 246.565073,20.7296991 249.990922,24.4667265 C253.264689,28.0917231 254.893568,32.7730101 254.893568,38.5185897 Z M246.048795,38.7146436 C246.048795,35.1976767 245.288384,32.1808473 243.763561,29.6561532 C241.974596,26.607315 239.413213,25.0828959 236.095423,25.0828959 C232.677578,25.0828959 230.056163,26.607315 228.2712,29.6561532 C226.742375,32.1808473 225.981964,35.249691 225.981964,38.8746876 C225.981964,42.3956556 226.742375,45.4204872 228.2712,47.9371791 C230.116196,50.9860173 232.689585,52.5104364 236.023384,52.5104364 C239.285144,52.5104364 241.842524,50.9540085 243.691522,47.8611582 C245.260369,45.2764476 246.048795,42.2396127 246.048795,38.7146436 Z M282.640544,27.1394613 C281.75309,26.9792855 280.852886,26.9002706 279.951092,26.9033964 C276.949472,26.9033964 274.628219,28.0317066 272.995338,30.3043314 C271.578573,32.3048814 270.866189,34.8335766 270.866189,37.8864159 L270.866189,58.0319544 L262.333584,58.0319544 L262.333584,31.728723 C262.341193,27.6982681 262.258461,23.6681489 262.08545,19.6413999 L269.517461,19.6413999 L269.829629,26.9874195 L270.065757,26.9874195 C270.970245,24.4627254 272.38701,22.4261655 274.332059,20.9017464 C276.112434,19.5696911 278.275644,18.848344 280.499388,18.845181 C281.287813,18.845181 282.000198,18.9011964 282.632539,19.0012239 L282.640544,27.1394613 Z M320.801139,37.0181772 C320.822776,38.3149323 320.718228,39.610718 320.488971,40.8872409 L294.891155,40.8872409 C294.987207,44.6802837 296.227877,47.5850823 298.60516,49.5856323 C300.762324,51.3701229 303.55183,52.2663693 306.977678,52.2663693 C310.767724,52.2663693 314.22559,51.6662043 317.335269,50.453871 L318.67199,56.3714979 C315.038029,57.9559335 310.747713,58.7441502 305.797041,58.7441502 C299.841827,58.7441502 295.167304,56.9916684 291.765468,53.494707 C288.371637,49.9937445 286.670719,45.2884509 286.670719,39.3948306 C286.670719,33.60924 288.251572,28.7879145 291.41728,24.9428574 C294.731069,20.8377288 299.209486,18.7851645 304.844527,18.7851645 C310.379514,18.7851645 314.569776,20.8377288 317.415312,24.9428574 C319.668528,28.1957517 320.801139,32.2288605 320.801139,37.0181772 Z M312.664748,34.8055689 C312.72478,32.2728726 312.164478,30.0922731 311.007854,28.247766 C309.531057,25.8711126 307.25783,24.686787 304.212186,24.686787 C301.42268,24.686787 299.149454,25.8431049 297.42052,28.1637429 C295.999754,30.00825 295.155298,32.2248594 294.895157,34.7975667 L312.664748,34.8055689 Z" id="Shape"></path>
            </g>
            <g id="Group" transform="translate(169.092880, 21.006600)" fill="#FFFFFF" fill-rule="nonzero">
                <path d="M8.84877576,29.9722401 C6.47549488,29.9722401 4.4223868,29.8562082 2.71346448,29.6601543 L2.71346448,3.9170769 C5.10358882,3.54795593 7.51889907,3.36601953 9.93736328,3.3729273 C19.7226445,3.3729273 24.2290766,8.1862506 24.2290766,16.0324077 C24.2290766,25.0828959 18.9062038,29.9722401 8.84877576,29.9722401 Z M10.281549,6.6738348 C8.96083624,6.6738348 7.83622928,6.7538568 6.903726,6.9459096 L6.903726,26.5152897 C7.40799816,26.5953117 8.37652088,26.6313216 9.73725528,26.6313216 C16.1487156,26.6313216 19.7986855,22.9823184 19.7986855,16.1484396 C19.7986855,10.0547643 16.4969035,6.6738348 10.281549,6.6738348 Z M38.2726561,30.168294 C32.7576796,30.168294 29.1837507,26.0511621 29.1837507,20.4616254 C29.1837507,14.6360238 32.8337206,10.482882 38.5848246,10.482882 C44.0197578,10.482882 47.6737299,14.40396 47.6737299,20.1535407 C47.6737299,26.0511621 43.9076974,30.168294 38.2726561,30.168294 Z M38.4327425,13.5477246 C35.4031074,13.5477246 33.4620598,16.3805034 33.4620598,20.3415924 C33.4620598,24.2266605 35.443129,27.0594393 38.3927209,27.0594393 C41.3423128,27.0594393 43.323382,24.0306066 43.323382,20.2615704 C43.323382,16.4205144 41.3823344,13.5477246 38.4327425,13.5477246 Z M79.1227032,10.8709887 L73.2195172,29.7401763 L69.3734414,29.7401763 L66.9281217,21.5459235 C66.3201088,19.5415542 65.8138563,17.5077327 65.411303,15.4522482 L65.3312598,15.4522482 C65.0230935,17.5088136 64.4387782,19.5693801 63.8184434,21.5459235 L61.2170394,29.7401763 L57.330942,29.7401763 L51.7759439,10.8709887 L56.0862702,10.8709887 L58.2234237,19.8414549 C58.7276958,21.9780423 59.1519248,23.9945967 59.5041149,25.8991203 L59.5841581,25.8991203 C59.8923244,24.3106836 60.3965966,22.326138 61.1369962,19.8814659 L63.8184434,10.8749898 L67.236288,10.8749898 L69.8016726,19.6894131 C70.4220074,21.8260005 70.9262795,23.9225769 71.3184912,25.9031214 L71.4305517,25.9031214 C71.7026986,23.9625879 72.1309297,21.9020214 72.7112429,19.6894131 L75.0044806,10.8749898 L79.1227032,10.8709887 Z M100.854432,29.7401763 L96.6601683,29.7401763 L96.6601683,18.9051975 C96.6601683,15.5682801 95.3794771,13.8958203 92.8541142,13.8958203 C90.3687728,13.8958203 88.6598505,16.0324077 88.6598505,18.5170908 L88.6598505,29.7401763 L84.4655868,29.7401763 L84.4655868,16.2644715 C84.4655868,14.5960128 84.4255652,12.8075211 84.3095026,10.8669876 L87.9994941,10.8669876 L88.1955999,13.7797884 L88.3116626,13.7797884 C89.4402717,11.763234 91.7295072,10.482882 94.2948918,10.482882 C98.2570302,10.482882 100.858434,13.5117147 100.858434,18.4410699 L100.854432,29.7401763 Z M112.420674,29.7401763 L108.222409,29.7401763 L108.222409,2.2126083 L112.420674,2.2126083 L112.420674,29.7401763 Z M127.712928,30.168294 C122.201953,30.168294 118.624022,26.0511621 118.624022,20.4616254 C118.624022,14.6360238 122.273992,10.482882 128.021094,10.482882 C133.46003,10.482882 137.109999,14.40396 137.109999,20.1535407 C137.114002,26.0511621 133.343967,30.168294 127.712928,30.168294 Z M127.869012,13.5477246 C124.839377,13.5477246 122.898329,16.3805034 122.898329,20.3415924 C122.898329,24.2266605 124.883401,27.0594393 127.824988,27.0594393 C130.778582,27.0594393 132.755649,24.0306066 132.755649,20.2615704 C132.759652,16.4205144 130.822606,13.5477246 127.869012,13.5477246 Z M153.646925,29.7401763 L153.34276,27.567579 L153.2307,27.567579 C151.950009,29.3160597 150.081,30.168294 147.711721,30.168294 C144.329896,30.168294 141.9286,27.7996428 141.9286,24.6147672 C141.9286,19.9574868 145.96678,17.5488246 152.958553,17.5488246 L152.958553,17.2007289 C152.958553,14.7160458 151.641842,13.4717037 149.040438,13.4717037 C147.179434,13.4717037 145.546553,13.9398324 144.109777,14.8720887 L143.257317,12.1153308 C145.002259,11.0270316 147.179434,10.482882 149.736814,10.482882 C154.667475,10.482882 157.156819,13.083597 157.156819,18.2890281 L157.156819,25.2389388 C157.156819,27.1434624 157.240864,28.6198683 157.428966,29.7441774 L153.646925,29.7401763 Z M153.070614,20.3415924 C148.412099,20.3415924 146.074838,21.4699026 146.074838,24.1466385 C146.074838,26.127183 147.279488,27.0954492 148.952391,27.0954492 C151.085542,27.0954492 153.070614,25.4670015 153.070614,23.2543932 L153.070614,20.3415924 Z M177.523811,29.7401763 L177.327705,26.7113436 L177.211643,26.7113436 C176.006992,28.9999728 173.9819,30.168294 171.152372,30.168294 C166.601916,30.168294 163.232098,26.167194 163.232098,20.5376463 C163.232098,14.6360238 166.725983,10.4788809 171.496558,10.4788809 C174.021921,10.4788809 175.810887,11.3311152 176.819431,13.043586 L176.903476,13.043586 L176.903476,2.2126083 L181.101742,2.2126083 L181.101742,24.6547782 C181.101742,26.4792798 181.145766,28.1877495 181.257826,29.7401763 L177.523811,29.7401763 Z M176.903476,18.6371238 C176.903476,15.9963978 175.154532,13.7437785 172.485092,13.7437785 C169.375413,13.7437785 167.474387,16.5005364 167.474387,20.3816034 C167.474387,24.1866495 169.447452,26.7913656 172.401046,26.7913656 C175.03847,26.7913656 176.903476,24.4987353 176.903476,21.7819884 L176.903476,18.6371238 Z M207.720108,30.168294 C202.209134,30.168294 198.635205,26.0511621 198.635205,20.4616254 C198.635205,14.6360238 202.285175,10.482882 208.032277,10.482882 C213.471212,10.482882 217.121182,14.40396 217.121182,20.1535407 C217.125184,26.0511621 213.359152,30.168294 207.720108,30.168294 Z M207.876193,13.5477246 C204.85056,13.5477246 202.909512,16.3805034 202.909512,20.3415924 C202.909512,24.2266605 204.890581,27.0594393 207.836171,27.0594393 C210.789765,27.0594393 212.766832,24.0306066 212.766832,20.2615704 C212.774836,16.4205144 210.833789,13.5477246 207.876193,13.5477246 Z M239.677356,29.7401763 L235.47909,29.7401763 L235.47909,18.9051975 C235.47909,15.5682801 234.198399,13.8958203 231.673036,13.8958203 C229.187695,13.8958203 227.482774,16.0324077 227.482774,18.5170908 L227.482774,29.7401763 L223.284509,29.7401763 L223.284509,16.2644715 C223.284509,14.5960128 223.244487,12.8075211 223.128424,10.8669876 L226.818416,10.8669876 L227.014522,13.7797884 L227.130584,13.7797884 C228.255191,11.763234 230.548429,10.4788809 233.109811,10.4788809 C237.07195,10.4788809 239.677356,13.5077136 239.677356,18.4370688 L239.677356,29.7401763 Z M267.896586,14.0158533 L263.282096,14.0158533 L263.282096,23.1783723 C263.282096,25.5110136 264.090532,26.6753337 265.723413,26.6753337 C266.463813,26.6753337 267.084148,26.5953117 267.584418,26.4792798 L267.70048,29.6641554 C266.888042,29.9762412 265.799454,30.1322841 264.446724,30.1322841 C261.14094,30.1322841 259.163873,28.3077825 259.163873,23.5304691 L259.163873,14.0158533 L256.410387,14.0158533 L256.410387,10.8709887 L259.163873,10.8709887 L259.163873,7.4140383 L263.282096,6.1696962 L263.282096,10.8669876 L267.896586,10.8669876 L267.896586,14.0158533 Z M290.10057,29.7401763 L285.910308,29.7401763 L285.910308,18.9852195 C285.910308,15.6082911 284.633619,13.8998214 282.104254,13.8998214 C279.931081,13.8998214 277.905988,15.3762273 277.905988,18.365049 L277.905988,29.7401763 L273.715727,29.7401763 L273.715727,2.2126083 L277.905988,2.2126083 L277.905988,13.5477246 L277.990034,13.5477246 C279.310746,11.4911592 281.223779,10.4788809 283.665096,10.4788809 C287.659252,10.4788809 290.10057,13.5837345 290.10057,18.5170908 L290.10057,29.7401763 Z M312.848847,21.3138597 L300.262054,21.3138597 C300.342097,24.886842 302.707374,26.9033964 306.209264,26.9033964 C308.070268,26.9033964 309.783193,26.5913106 311.296009,26.0111511 L311.948361,28.9239519 C310.163398,29.7001653 308.062264,30.088272 305.616944,30.088272 C299.713758,30.088272 296.219872,26.3592468 296.219872,20.5776573 C296.219872,14.7920667 299.797803,10.442871 305.144689,10.442871 C309.967292,10.442871 312.992925,14.0158533 312.992925,19.4133372 C313.020046,20.0503084 312.971684,20.6882507 312.848847,21.3138597 Z M309.002771,18.325038 C309.002771,15.4122372 307.533979,13.3556718 304.852532,13.3556718 C302.443231,13.3556718 300.538203,15.4522482 300.266056,18.325038 L309.002771,18.325038 Z" id="Shape"></path>
            </g>
        </g>
    </g>
</svg>