<svg 
 xmlns="http://www.w3.org/2000/svg"
 xmlns:xlink="http://www.w3.org/1999/xlink"
 width="45.5px" height="51.5px">
<path fill-rule="evenodd"  stroke="rgb(38, 125, 244)" stroke-width="3px" stroke-linecap="butt" stroke-linejoin="miter" fill="none"
 d="M22.000,11.500 C31.665,11.500 39.500,19.335 39.500,29.000 C39.500,38.665 31.665,46.500 22.000,46.500 C12.335,46.500 4.500,38.665 4.500,29.000 C4.500,19.335 12.335,11.500 22.000,11.500 Z"/>
<path fill-rule="evenodd"  stroke="rgb(38, 125, 244)" stroke-width="3px" stroke-linecap="butt" stroke-linejoin="miter" fill="none"
 d="M4.836,16.515 C4.786,16.436 4.731,16.362 4.683,16.280 C2.280,12.150 3.622,6.917 7.679,4.593 C11.737,2.268 16.974,3.731 19.377,7.862 C19.425,7.943 19.461,8.027 19.505,8.110 C19.505,8.110 15.118,9.051 11.598,11.067 C7.794,13.247 4.836,16.515 4.836,16.515 Z"/>
<path fill-rule="evenodd"  stroke="rgb(38, 125, 244)" stroke-width="3px" stroke-linecap="butt" stroke-linejoin="miter" fill="none"
 d="M39.164,16.515 C39.214,16.436 39.269,16.362 39.317,16.280 C41.720,12.150 40.378,6.917 36.321,4.593 C32.263,2.268 27.026,3.731 24.623,7.862 C24.576,7.943 24.539,8.027 24.495,8.110 C24.495,8.110 28.882,9.051 32.402,11.067 C36.206,13.247 39.164,16.515 39.164,16.515 Z"/>
<path fill-rule="evenodd"  stroke="rgb(38, 125, 244)" stroke-width="3px" stroke-linecap="butt" stroke-linejoin="miter" fill="none"
 d="M14.042,43.930 C14.610,44.502 14.610,45.428 14.042,46.000 L11.985,48.069 C11.417,48.641 10.496,48.641 9.928,48.069 C9.360,47.498 9.360,46.571 9.928,46.000 L11.985,43.930 C12.553,43.359 13.474,43.359 14.042,43.930 Z"/>
<path fill-rule="evenodd"  stroke="rgb(38, 125, 244)" stroke-width="3px" stroke-linecap="butt" stroke-linejoin="miter" fill="none"
 d="M29.958,43.927 C29.390,44.496 29.390,45.417 29.958,45.984 L32.015,48.042 C32.583,48.610 33.504,48.610 34.072,48.042 C34.640,47.473 34.640,46.553 34.072,45.984 L32.015,43.927 C31.447,43.360 30.526,43.360 29.958,43.927 Z"/>
<path fill-rule="evenodd"  stroke="rgb(38, 125, 244)" stroke-width="3px" stroke-linecap="butt" stroke-linejoin="miter" fill="none"
 d="M30.019,30.488 L21.984,30.489 C21.170,30.489 20.509,29.864 20.509,29.092 C20.509,29.073 20.514,29.054 20.515,29.035 C20.515,29.025 20.509,29.016 20.509,29.005 L20.509,23.893 C20.509,23.121 21.170,22.496 21.984,22.496 C22.799,22.496 23.459,23.121 23.459,23.893 L23.459,27.523 L30.019,27.523 C30.833,27.523 31.494,28.187 31.494,29.005 C31.494,29.825 30.833,30.488 30.019,30.488 Z"/>
</svg>