<svg 
 xmlns="http://www.w3.org/2000/svg"
 xmlns:xlink="http://www.w3.org/1999/xlink"
 width="16px" height="15px">
<path fill-rule="evenodd"  opacity="0.302" fill="rgb(38, 39, 45)"
 d="M12.578,15.008 L12.578,9.595 C12.578,8.235 12.081,7.306 10.839,7.306 C9.893,7.306 9.328,7.932 9.082,8.537 C8.989,8.752 8.968,9.056 8.968,9.357 L8.968,15.008 L5.539,15.008 C5.539,15.008 5.584,5.838 5.539,4.889 L8.968,4.889 L8.968,6.324 C8.961,6.335 8.952,6.346 8.945,6.357 L8.968,6.357 L8.968,6.324 C9.423,5.634 10.236,4.652 12.058,4.652 C14.314,4.652 16.007,6.097 16.007,9.206 L16.007,15.008 L12.578,15.008 ZM1.926,3.508 L1.903,3.508 C0.752,3.508 0.009,2.731 0.009,1.760 C0.009,0.767 0.775,0.011 1.949,0.011 C3.122,0.011 3.844,0.767 3.865,1.760 C3.865,2.731 3.122,3.508 1.926,3.508 ZM3.640,15.008 L0.212,15.008 L0.212,4.889 L3.640,4.889 L3.640,15.008 Z"/>
</svg>