<svg 
 xmlns="http://www.w3.org/2000/svg"
 xmlns:xlink="http://www.w3.org/1999/xlink"
 width="14px" height="17px">
<path fill-rule="evenodd"  opacity="0.302" fill="rgb(38, 39, 45)"
 d="M5.740,11.246 C5.268,13.588 4.690,15.834 2.981,17.008 C2.453,13.467 3.756,10.808 4.361,7.985 C3.330,6.344 4.485,3.040 6.660,3.854 C9.336,4.855 4.342,9.956 7.695,10.594 C11.195,11.259 12.624,4.851 10.454,2.767 C7.318,-0.242 1.324,2.699 2.061,7.007 C2.241,8.060 3.391,8.380 2.521,9.833 C0.514,9.413 -0.085,7.916 -0.008,5.920 C0.116,2.653 3.096,0.366 6.085,0.049 C9.865,-0.351 13.413,1.362 13.903,4.724 C14.454,8.519 12.197,12.629 8.154,12.333 C7.059,12.252 6.599,11.740 5.740,11.246 Z"/>
</svg>