<svg 
 xmlns="http://www.w3.org/2000/svg"
 xmlns:xlink="http://www.w3.org/1999/xlink"
 width="10px" height="16px">
<path fill-rule="evenodd"  opacity="0.302" fill="rgb(38, 39, 45)"
 d="M8.497,12.783 C8.206,12.925 7.649,13.048 7.233,13.059 C5.980,13.094 5.988,11.878 5.977,11.199 L5.977,6.400 L9.000,6.400 L9.000,4.000 L5.977,4.000 L5.977,-0.000 C5.977,-0.000 3.137,0.004 3.100,0.004 C3.062,0.004 2.996,0.038 2.987,0.125 C2.853,1.372 2.375,3.125 -0.000,4.000 L-0.000,6.403 L1.980,6.400 L1.980,12.001 C1.980,13.790 3.127,16.062 6.538,16.002 C7.689,15.982 8.968,15.489 9.250,15.065 L8.497,12.783 Z"/>
</svg>